<?xml version="1.0" encoding="UTF-8"?>
<!-- Generator: Adobe Illustrator 16.0.0, SVG Export Plug-In . SVG Version: 6.00 Build 0)  -->
<!DOCTYPE svg PUBLIC "-//W3C//DTD SVG 1.1//EN" "http://www.w3.org/Graphics/SVG/1.1/DTD/svg11.dtd">
<svg version="1.1" id="Layer_1" xmlns="http://www.w3.org/2000/svg" xmlns:xlink="http://www.w3.org/1999/xlink" x="0px" y="0px" width="841.891px" height="595.281px" viewBox="0 0 841.891 595.281" enable-background="new 0 0 841.891 595.281" xml:space="preserve">
<g>
	<path d="M637.322,194.553c3.83-3.833,3.834-10.109,0-13.942c-3.834-3.832-10.104-3.832-13.942,0c-3.83,3.835-3.834,10.109,0,13.942   C627.214,198.388,633.488,198.386,637.322,194.553z"/>
	<path d="M546.72,3.722c-111.952,0-209.352,62.28-259.453,154.079V1L0,84.363l26.875,24.403v486.647h260.393V440.408   C337.369,532.212,434.768,594.49,546.72,594.49c163.127,0,295.369-132.242,295.369-295.393   C842.09,135.965,709.847,3.722,546.72,3.722z M330.635,306.076c-3.834,3.832-10.108,3.836-13.941,0   c-3.833-3.832-3.833-10.106,0-13.942c3.833-3.832,10.106-3.832,13.941,0C334.469,295.969,334.469,302.244,330.635,306.076z    M720.973,236.375c3.83,3.834,1.636,12.307-4.889,18.827l-18.104,18.107c-6.524,6.521-14.998,8.72-18.836,4.888   c-3.83-3.835-1.632-12.311,4.889-18.831l18.108-18.105C708.661,234.741,717.139,232.54,720.973,236.375z M693.092,208.495   c3.834,3.833,1.631,12.306-4.891,18.828l-45.988,45.987c-6.521,6.521-14.994,8.72-18.828,4.888   c-3.835-3.835-1.637-12.31,4.885-18.831l45.989-45.987C680.778,206.86,689.253,204.659,693.092,208.495z M642.213,157.619   l18.106,18.106c6.521,6.521,6.521,17.194,0,23.716L530.691,329.069c-6.524,6.521-14.998,8.726-18.832,4.888   c-3.834-3.832-1.636-12.304,4.889-18.824l87.809-87.809c6.52-6.522,6.52-17.196-0.005-23.719l-4.16-4.163   c-6.521-6.522-6.521-17.196,0-23.718l18.104-18.104C625.015,151.097,635.687,151.097,642.213,157.619z M609.444,306.076   c-3.834,3.836-10.104,3.832-13.943,0c-3.829-3.832-3.829-10.107,0-13.942c3.836-3.832,10.104-3.832,13.943,0   C613.274,295.97,613.278,302.244,609.444,306.076z M474.928,329.067c-6.524,6.522-14.998,8.726-18.833,4.89   c-3.832-3.832-1.636-12.306,4.89-18.83L562.73,213.38c6.524-6.52,14.998-8.721,18.832-4.886c3.834,3.833,1.635,12.306-4.89,18.828   L474.928,329.067z M539.741,69.089c3.83-3.833,12.305-1.634,18.828,4.886l45.981,45.984c6.523,6.522,6.523,17.196,0.005,23.719   l-129.633,129.63c-6.521,6.522-14.993,8.721-18.828,4.889c-3.832-3.833-1.635-12.308,4.89-18.83L576.674,143.68   c6.523-6.522,6.523-17.195,0-23.716l-32.048-32.047C538.105,81.396,535.907,72.921,539.741,69.089z M488.866,119.963l18.104-18.105   c6.523-6.52,17.196-6.52,23.722,0.002l18.1,18.104c6.524,6.522,6.524,17.196,0,23.718l-18.1,18.103   c-6.523,6.522-14.998,8.722-18.832,4.888s-1.636-12.309,4.889-18.831l4.161-4.164c6.521-6.521,8.725-14.995,4.89-18.828   c-3.83-3.833-12.305-1.632-18.823,4.888l-4.169,4.166c-6.521,6.521-14.994,8.72-18.828,4.887   C480.143,134.959,482.346,126.485,488.866,119.963z M400.335,208.495c3.832-3.835,12.307-1.634,18.828,4.888l4.163,4.163   c6.521,6.522,14.996,8.723,18.83,4.888c3.832-3.834,1.633-12.307-4.89-18.827l-4.162-4.165c-6.524-6.52-8.724-14.995-4.89-18.83   c3.835-3.832,12.311-1.633,18.829,4.889l4.166,4.164c6.521,6.522,14.993,8.722,18.827,4.889s1.632-12.308-4.889-18.83l-4.165-4.163   c-6.521-6.522-8.72-14.995-4.885-18.829c3.834-3.835,12.304-1.634,18.823,4.888l18.107,18.104c6.521,6.522,6.521,17.196,0,23.718   l-73.866,73.867c-6.521,6.522-14.996,8.721-18.828,4.889c-3.834-3.835-1.635-12.31,4.888-18.833l4.16-4.161   c6.524-6.522,6.524-17.196,0-23.718l-4.164-4.164C398.699,220.8,396.501,212.328,400.335,208.495z M349.462,259.367l18.104-18.104   c6.522-6.522,14.997-8.724,18.832-4.888c3.833,3.834,1.633,12.307-4.89,18.827l-4.166,4.166c-6.522,6.521-6.522,17.195,0,23.718   l18.104,18.104c6.522,6.521,17.195,6.521,23.717,0l4.165-4.166c6.522-6.52,14.994-8.721,18.828-4.886   c3.834,3.833,1.633,12.306-4.89,18.826l-4.164,4.166c-6.522,6.521-6.522,17.195,0.002,23.718l18.102,18.103   c6.524,6.524,17.197,6.524,23.718,0l4.165-4.16c6.521-6.525,14.998-8.726,18.827-4.894c3.834,3.834,1.637,12.308-4.885,18.832   l-18.107,18.104c-6.521,6.52-17.192,6.52-23.718,0L349.462,283.086C342.939,276.563,342.939,265.89,349.462,259.367z    M358.515,333.957c-3.834,3.838-10.107,3.836-13.941,0c-3.834-3.832-3.834-10.105,0-13.939c3.834-3.836,10.107-3.836,13.941,0   C362.35,323.853,362.35,330.125,358.515,333.957z M386.396,361.841c-3.834,3.83-10.108,3.83-13.941,0   c-3.834-3.836-3.834-10.109,0-13.943c3.834-3.832,10.108-3.832,13.941,0C390.229,351.731,390.229,358.005,386.396,361.841z    M479.093,468.47l-73.871-73.863c-6.522-6.523-8.721-14.998-4.887-18.832c3.832-3.834,12.307-1.635,18.828,4.889l59.926,59.926   c6.521,6.523,14.998,8.723,18.828,4.889c3.834-3.828,1.636-12.307-4.886-18.83l-4.165-4.156c-6.521-6.525-6.521-17.197,0-23.717   l18.108-18.109c6.52-6.523,17.192-6.523,23.713,0l18.107,18.109c6.521,6.52,6.521,17.189,0,23.717l-45.985,45.979   C496.285,474.996,485.612,474.996,479.093,468.47z M511.859,501.248c-3.834-3.836-1.636-12.309,4.889-18.834l59.926-59.924   c6.523-6.525,6.523-17.197,0-23.717l-32.048-32.044c-6.523-6.524-8.724-14.998-4.889-18.832c3.834-3.832,12.309-1.633,18.832,4.89   l45.981,45.986c6.523,6.52,8.724,14.986,4.894,18.822c-3.839,3.834-12.308,12.309-18.832,18.832l-59.921,59.924   C524.167,502.875,515.693,505.072,511.859,501.248z M553.681,529.121c-3.835,3.834-10.109,3.834-13.939,0   c-3.834-3.834-3.834-10.109,0-13.939c3.83-3.834,10.104-3.834,13.939,0C557.515,519.011,557.515,525.287,553.681,529.121z    M586.451,496.353c-6.523,6.521-14.998,8.719-18.828,4.895c-3.834-3.836-1.635-12.309,4.887-18.834l59.924-59.924   c6.524-6.525,6.524-17.197,0-23.717l-59.924-59.924c-6.525-6.521-8.725-14.996-4.891-18.832s12.309-1.635,18.832,4.889   l59.921,59.928c6.524,6.517,14.998,8.715,18.832,4.881c3.835-3.83,1.637-12.305-4.885-18.823l-32.047-32.048   c-6.524-6.52-6.524-17.19,0-23.717l18.1-18.102c6.524-6.523,17.197-6.523,23.723-0.002l18.104,18.105   c6.521,6.522,8.725,14.996,4.889,18.828c-3.834,3.836-12.308,1.635-18.827-4.888l-4.164-4.164   c-6.524-6.521-14.998-8.725-18.828-4.885c-3.834,3.834-1.631,12.308,4.889,18.828l18.104,18.103c6.521,6.524,17.196,6.524,23.718,0   l18.107-18.103c6.521-6.521,6.521-17.195,0-23.718l-4.17-4.166c-6.52-6.521-6.52-17.194,0-23.714l18.108-18.107   c6.521-6.521,17.192-6.521,23.718,0.001l18.104,18.104c6.521,6.522,6.521,17.196,0,23.716L586.451,496.353z"/>
	<path d="M734.912,292.139c-3.835,3.833-3.835,10.104-0.005,13.938c3.835,3.838,10.109,3.838,13.939,0   c3.838-3.834,3.838-10.105,0.004-13.938C745.021,288.303,738.742,288.303,734.912,292.139z"/>
	<path d="M511.859,403.662c-3.834,3.834-3.834,10.107,0,13.941c3.834,3.826,10.104,3.826,13.938-0.008   c3.835-3.836,3.835-10.107,0-13.938C521.969,399.824,515.693,399.824,511.859,403.662z"/>
</g>
</svg>