<?xml version="1.0" encoding="UTF-8"?>
<!-- Generator: Adobe Illustrator 16.0.0, SVG Export Plug-In . SVG Version: 6.00 Build 0)  -->
<!DOCTYPE svg PUBLIC "-//W3C//DTD SVG 1.1//EN" "http://www.w3.org/Graphics/SVG/1.1/DTD/svg11.dtd">
<svg version="1.1" id="Layer_1" xmlns="http://www.w3.org/2000/svg" xmlns:xlink="http://www.w3.org/1999/xlink" x="0px" y="0px" width="350px" height="600px" viewBox="0 0 350 600" enable-background="new 0 0 350 600" xml:space="preserve">
<rect x="0.221" y="0.553" fill="#FFFFFF" width="350.086" height="599.887"/>
<g>
	<path fill="#F04A23" d="M203.795,465.839c-1.253,0-3.268,0.045-5.998,0.09v11.147h6.355c3.716,0,6.402-2.372,6.402-5.774   C210.556,467.674,207.958,465.839,203.795,465.839z"/>
	<path fill="#F04A23" d="M161.336,56.21c0.382,0,0.749-0.052,1.105-0.131c0.725-0.091,1.664-0.166,2.272-0.253   c0.888-0.087,1.723-0.114,2.497-0.166c1.552-0.082,2.872-0.149,3.941-0.205c1.147-0.049,1.997-0.084,2.55-0.107   c0.94,0.045,2.855,0.131,5.611,0.26c1.002,0.059,2.105,0.126,3.308,0.2c1.196,0.174,2.492,0.361,3.876,0.561   c1.383,0.218,2.852,0.448,4.399,0.691c1.551,0.229,3.139,0.725,4.813,1.121c1.669,0.427,3.41,0.874,5.197,1.375   c1.746,0.629,3.554,1.282,5.411,1.953c0.923,0.346,1.859,0.696,2.81,1.054c0.938,0.384,1.849,0.852,2.791,1.287   c1.87,0.891,3.775,1.814,5.699,2.775c3.039,1.7,6.06,3.609,9.02,5.696l0.007-0.006c0.789,0.527,1.742,0.835,2.768,0.835   c2.741,0,4.964-2.195,4.964-4.903c0-1.742-0.924-3.262-2.311-4.132c-3.196-2.244-6.465-4.302-9.749-6.133   c-2.122-1.07-4.229-2.094-6.3-3.075c-1.037-0.481-2.051-0.99-3.087-1.416c-1.048-0.396-2.082-0.788-3.104-1.172   c-2.048-0.761-4.049-1.479-5.985-2.153c-1.978-0.558-3.9-1.056-5.747-1.53c-1.851-0.438-3.608-0.972-5.32-1.232   c-1.712-0.271-3.339-0.528-4.863-0.77c-1.53-0.219-2.962-0.422-4.287-0.612c-1.33-0.083-2.547-0.16-3.654-0.229   c-2.491-0.137-4.356-0.217-5.529-0.262V45.48c0,0-0.224,0.008-0.635,0.024c-0.49-0.017-0.771-0.024-0.771-0.024v0.056   c-0.572,0.022-1.315,0.052-2.221,0.088c-1.182,0.061-2.64,0.139-4.354,0.228c-0.857,0.057-1.779,0.095-2.758,0.19   c-0.935,0.133-1.929,0.273-2.973,0.419c-2.45,0.299-4.355,2.342-4.355,4.846C156.372,54.014,158.594,56.21,161.336,56.21z"/>
	<path fill="#F04A23" d="M111.225,78.353c1.363,0,2.595-0.542,3.492-1.42c2.146-1.773,4.384-3.352,6.512-4.952   c1.474-1.124,3.09-1.985,4.599-2.946c1.537-0.914,3.018-1.863,4.541-2.667c1.547-0.753,3.062-1.491,4.545-2.212   c1.497-0.688,2.914-1.459,4.406-1.963c0.397-0.144,0.911-0.334,1.235-0.494c1.818-0.729,3.104-2.484,3.104-4.543   c0-2.71-2.222-4.905-4.965-4.905c-0.807,0-1.56,0.209-2.232,0.548l-0.017-0.028c-0.274,0.101-0.547,0.204-0.826,0.307   c-1.645,0.566-3.22,1.406-4.876,2.166c-1.636,0.799-3.312,1.617-5.023,2.452c-1.679,0.889-3.318,1.932-5.02,2.944   c-1.669,1.059-3.447,2.026-5.082,3.259c-2.715,2.028-4.981,3.556-7.639,5.865c-1.044,0.898-1.719,2.208-1.719,3.687   C106.261,76.156,108.484,78.353,111.225,78.353z"/>
	<path fill="#F04A23" d="M96.384,178.618c0.353,0.94,0.704,1.875,1.055,2.807c0.428,0.901,0.854,1.799,1.28,2.694   c0.817,1.635,0.854,1.993,1.737,3.569l0.008-0.006c0.851,1.491,2.451,2.507,4.306,2.507c2.742,0,4.965-2.194,4.965-4.901   c0-0.977-0.296-1.877-0.792-2.641c-0.437-0.896-0.86-1.798-1.312-2.694l-1.133-2.371l-0.923-2.478   c-0.583-1.665-1.275-3.308-1.767-5.02c-2.051-6.847-2.994-14.08-3.151-21.308c0.158-7.232,1.102-14.46,3.151-21.308   c0.491-1.711,1.184-3.354,1.767-5.023l0.923-2.476l1.133-2.371c0.786-1.56,1.455-3.171,2.331-4.655   c0.894-1.472,1.782-2.937,2.664-4.388c3.8-5.603,7.987-10.736,12.734-14.771c2.224-2.187,4.767-3.857,7.084-5.64   c1.155-0.9,2.451-1.552,3.637-2.316c1.217-0.717,2.375-1.486,3.577-2.118c1.223-0.591,2.42-1.171,3.591-1.734   c1.183-0.539,2.29-1.176,3.474-1.555c2.333-0.822,4.505-1.739,6.628-2.333c2.141-0.55,4.141-1.063,5.991-1.539   c1.877-0.336,3.619-0.572,5.182-0.819c0.784-0.118,1.525-0.23,2.225-0.335c0.699-0.067,1.361-0.081,1.976-0.118   c1.228-0.062,2.272-0.118,3.118-0.159c0.822-0.039,1.453-0.07,1.889-0.092c0.798,0.04,2.257,0.112,4.272,0.211   c0.794,0.042,1.668,0.091,2.623,0.144c0.941,0.142,1.964,0.296,3.055,0.459c1.09,0.168,2.251,0.346,3.478,0.536   c1.227,0.164,2.464,0.585,3.788,0.891c1.314,0.343,2.685,0.7,4.103,1.069c1.374,0.503,2.799,1.021,4.261,1.555   c0.732,0.266,1.469,0.541,2.223,0.817c0.736,0.302,1.454,0.68,2.19,1.025c1.473,0.711,2.978,1.438,4.503,2.178   c5.922,3.337,11.8,7.625,16.985,12.693c5.065,5.184,9.356,11.066,12.696,16.984c0.736,1.527,1.465,3.031,2.175,4.502   c0.343,0.74,0.722,1.456,1.022,2.194c0.278,0.75,0.553,1.491,0.82,2.219c0.532,1.463,1.051,2.886,1.554,4.262   c0.368,1.418,0.728,2.787,1.07,4.101c0.304,1.323,0.727,2.564,0.889,3.792c0.189,1.224,0.37,2.383,0.535,3.474   c0.165,1.091,0.203,2.187,0.346,3.132c0.016,0.693,0.1,1.491,0.162,2.178c0,0.005-0.003,0.008-0.003,0.011   c0,0.04,0.015,0.073,0.015,0.113c0.017,0.204,0.033,0.403,0.045,0.577l0.013-0.002c0.337,2.381,2.392,4.217,4.895,4.217   c2.737,0,4.962-2.194,4.962-4.904c0-0.103-0.023-0.2-0.025-0.3l0.015-0.005c-0.053-0.893-0.109-1.88-0.173-2.96   c-0.159-1.069-0.327-2.228-0.511-3.466c-0.19-1.236-0.396-2.55-0.612-3.937c-0.198-1.389-0.655-2.802-1.005-4.302   c-0.395-1.489-0.801-3.042-1.224-4.648c-0.565-1.562-1.152-3.177-1.753-4.837c-0.313-0.827-0.622-1.666-0.938-2.515   c-0.344-0.837-0.764-1.653-1.153-2.492c-0.812-1.667-1.639-3.37-2.479-5.102c-3.771-6.716-8.636-13.377-14.379-19.243   c-5.866-5.746-12.528-10.609-19.244-14.382c-1.732-0.839-3.435-1.665-5.1-2.474c-0.844-0.391-1.658-0.813-2.493-1.157   c-0.848-0.315-1.688-0.627-2.516-0.936c-1.661-0.602-3.275-1.187-4.835-1.752c-1.608-0.423-3.161-0.831-4.65-1.223   c-1.496-0.351-2.913-0.809-4.305-1.005c-1.386-0.215-2.7-0.422-3.935-0.614c-1.237-0.183-2.396-0.352-3.469-0.51   c-1.076-0.063-2.068-0.121-2.962-0.172c-1.836-0.087-3.259-0.155-4.22-0.202v-0.065c0,0-0.25,0.01-0.725,0.032   c-0.434-0.02-0.681-0.032-0.681-0.032v0.063c-0.425,0.02-0.929,0.042-1.535,0.069c-0.959,0.049-2.143,0.109-3.53,0.18   c-0.696,0.046-1.442,0.067-2.236,0.145c-0.791,0.115-1.631,0.239-2.521,0.371c-1.774,0.275-3.745,0.546-5.873,0.937   c-2.101,0.538-4.368,1.12-6.795,1.743c-2.408,0.679-4.88,1.698-7.523,2.646c-1.335,0.441-2.6,1.146-3.938,1.758   c-1.325,0.643-2.682,1.302-4.069,1.973c-1.357,0.72-2.679,1.577-4.056,2.394c-1.349,0.864-2.804,1.619-4.118,2.632   c-2.638,2.004-5.499,3.923-8.029,6.383c-5.361,4.586-10.128,10.376-14.423,16.738c-0.997,1.644-2.004,3.303-3.019,4.973   c-0.987,1.685-1.763,3.504-2.646,5.276c-0.425,0.896-0.853,1.792-1.28,2.693c-0.351,0.932-0.701,1.869-1.055,2.805   c-0.669,1.89-1.438,3.758-1.995,5.699c-2.33,7.767-3.414,15.964-3.574,24.147c0.16,8.182,1.244,16.377,3.574,24.144   C94.946,174.862,95.714,176.732,96.384,178.618z"/>
	<path fill="#F04A23" d="M220.32,260.244c0.653,1.085,1.111,2.281,1.696,3.418l0.852,1.725l0.653,1.82   c0.414,1.223,0.949,2.413,1.304,3.671c0.825,2.763,1.379,5.618,1.754,8.513h0.02c0.111,2.612,2.276,4.7,4.944,4.7   c2.741,0,4.964-2.193,4.964-4.906c0-0.042-0.009-0.079-0.009-0.122c-0.013-0.101-0.023-0.191-0.032-0.292   c-0.02-0.203-0.027-0.406-0.07-0.604c-0.421-3.676-1.063-6.489-2.149-10.131c-0.421-1.483-1.036-2.9-1.535-4.343l-0.788-2.148   l-0.993-2.049c-0.685-1.349-1.249-2.752-2.012-4.035c-0.773-1.274-1.549-2.543-2.313-3.803c-3.306-4.846-6.911-9.317-11.043-12.804   c-1.914-1.913-4.143-3.334-6.139-4.894c-0.996-0.79-2.133-1.337-3.155-2.007c-1.059-0.616-2.058-1.295-3.097-1.841   c-1.061-0.508-2.098-1.009-3.113-1.493c-1.023-0.466-1.976-1.035-3.005-1.354c-2.025-0.695-3.901-1.509-5.738-2.017   c-1.852-0.479-3.585-0.924-5.187-1.338c-1.627-0.285-3.137-0.482-4.489-0.701c-0.681-0.105-1.322-0.203-1.929-0.301   c-0.606-0.055-1.182-0.058-1.714-0.094c-1.069-0.052-1.976-0.1-2.709-0.134c-0.319-0.016-0.594-0.034-0.85-0.044l-0.376-0.053   c0,0-0.527-0.066-2.223-0.147c-0.845-0.043-1.892-0.096-3.118-0.159c-0.614-0.037-1.276-0.053-1.976-0.121   c-0.698-0.105-1.44-0.216-2.225-0.338c-1.563-0.241-3.305-0.479-5.182-0.816c-1.852-0.473-3.853-0.99-5.991-1.537   c-2.124-0.596-4.295-1.512-6.628-2.336c-1.184-0.376-2.291-1.014-3.474-1.553c-1.171-0.564-2.368-1.141-3.592-1.733   c-1.2-0.632-2.359-1.398-3.576-2.117c-1.186-0.767-2.48-1.417-3.637-2.318c-2.318-1.783-4.86-3.453-7.084-5.638   c-1.004-0.854-1.979-1.771-2.935-2.715c-0.906-0.946-2.181-1.546-3.602-1.546c-2.741,0-4.963,2.196-4.963,4.906   c0,1.419,0.622,2.689,1.599,3.584c1.092,1.085,2.204,2.127,3.349,3.108c2.531,2.46,5.391,4.376,8.029,6.383   c1.313,1.011,2.771,1.77,4.118,2.634c1.377,0.816,2.697,1.675,4.056,2.392c1.389,0.672,2.744,1.327,4.069,1.975   c1.339,0.611,2.604,1.317,3.938,1.756c2.644,0.946,5.115,1.968,7.523,2.647c2.427,0.622,4.694,1.203,6.795,1.741   c2.127,0.393,4.099,0.666,5.873,0.939c0.89,0.13,1.729,0.253,2.521,0.37c0.794,0.079,1.541,0.097,2.236,0.142   c1.389,0.071,2.571,0.134,3.53,0.182c0.606,0.029,0.957,0.07,1.381,0.086l0.331,0.048c0,0,0.489,0.037,1.735,0.11   c0.624,0.032,1.395,0.068,2.298,0.111c0.448,0.029,0.938,0.029,1.456,0.076c0.512,0.082,1.055,0.169,1.626,0.267   c1.148,0.174,2.415,0.369,3.801,0.579c1.349,0.364,2.813,0.749,4.382,1.133c1.555,0.427,3.129,1.133,4.847,1.707   c0.874,0.253,1.673,0.758,2.538,1.148c0.859,0.409,1.739,0.827,2.637,1.256c0.879,0.458,1.721,1.04,2.612,1.567   c0.865,0.563,1.835,1.006,2.674,1.685c1.68,1.34,3.587,2.512,5.193,4.151c3.516,2.934,6.547,6.752,9.358,10.839   C219.013,258.094,219.667,259.167,220.32,260.244z"/>
	<path fill="#F04A23" d="M110.475,287.475c0.066,0.708,0.16,1.851,0.241,3.407c0.035,0.69,0.071,1.449,0.113,2.276   c0.125,0.816,0.262,1.701,0.409,2.65c0.145,0.942,0.294,1.947,0.456,3.005c0.133,1.069,0.516,2.138,0.777,3.281   c0.295,1.141,0.6,2.327,0.916,3.555c0.438,1.188,0.889,2.424,1.355,3.683c0.229,0.638,0.462,1.28,0.698,1.927   c0.263,0.639,0.598,1.26,0.896,1.902c0.614,1.271,1.241,2.574,1.876,3.896c2.906,5.125,6.622,10.219,11.007,14.728   c4.508,4.389,9.604,8.101,14.726,11.01c1.325,0.638,2.63,1.265,3.903,1.875c0.644,0.3,1.259,0.638,1.899,0.896   c0.648,0.236,1.291,0.469,1.925,0.701c1.266,0.463,2.496,0.916,3.685,1.354c1.228,0.314,2.415,0.621,3.555,0.916   c1.145,0.264,2.214,0.648,3.28,0.779c1.063,0.158,2.065,0.311,3.012,0.453c0.943,0.146,1.829,0.283,2.646,0.409   c0.829,0.044,1.588,0.08,2.274,0.116c1.219,0.063,1.9,0.122,2.622,0.158h0.373c0,0,0.308-0.026,0.607,0.025   c0.334-0.006,0.577-0.025,0.577-0.025l0.354-0.049c0.255-0.01,0.311,0.013,0.63-0.01c0.734-0.037,1.64-0.08,2.709-0.137   c0.532-0.025,1.106-0.037,1.714-0.095c0.605-0.091,1.248-0.19,1.929-0.295c1.354-0.224,2.862-0.416,4.489-0.701   c1.602-0.415,3.335-0.858,5.187-1.338c1.837-0.511,3.713-1.323,5.738-2.022c1.029-0.316,1.98-0.885,3.005-1.349   c1.017-0.49,2.054-0.985,3.113-1.496c1.039-0.547,2.038-1.222,3.097-1.838c1.022-0.669,2.159-1.218,3.155-2.007   c1.996-1.559,4.225-2.981,6.139-4.891c4.132-3.49,7.737-7.961,11.043-12.808c0.764-1.261,1.538-2.524,2.313-3.804   c0.763-1.282,1.327-2.687,2.012-4.034l0.993-2.05l0.788-2.147c0.499-1.444,1.127-2.755,1.548-4.235   c0.076-0.258,0.079-0.287,0.147-0.535c0.128-0.428,0.213-0.873,0.213-1.342c0-2.707-2.224-4.902-4.965-4.902   c-2.391,0-4.39,1.677-4.858,3.904l-0.001-0.002c-0.354,1.256-0.857,2.379-1.271,3.6l-0.653,1.816l-0.852,1.729   c-0.585,1.137-1.043,2.332-1.696,3.415c-0.652,1.076-1.308,2.15-1.953,3.215c-2.813,4.088-5.845,7.9-9.359,10.841   c-1.606,1.64-3.515,2.81-5.193,4.147c-0.839,0.683-1.809,1.121-2.674,1.691c-0.893,0.521-1.732,1.104-2.612,1.563   c-0.896,0.43-1.776,0.848-2.637,1.257c-0.865,0.39-1.664,0.896-2.538,1.147c-1.718,0.567-3.292,1.278-4.847,1.705   c-1.569,0.385-3.033,0.771-4.382,1.133c-1.385,0.211-2.651,0.406-3.8,0.586c-0.572,0.089-1.115,0.179-1.626,0.264   c-0.519,0.047-1.009,0.047-1.456,0.068c-0.904,0.047-1.675,0.084-2.299,0.115c-0.526,0.032-0.925,0.053-1.238,0.073   c-0.617-0.038-1.604-0.09-2.925-0.164c-0.584-0.024-1.227-0.053-1.929-0.085c-0.69-0.109-1.438-0.229-2.236-0.355   c-0.802-0.116-1.652-0.248-2.551-0.379c-0.904-0.103-1.801-0.449-2.77-0.664c-0.962-0.248-1.967-0.502-3.005-0.758   c-1.006-0.381-2.044-0.766-3.11-1.16c-0.537-0.189-1.082-0.385-1.63-0.578c-0.542-0.223-1.06-0.518-1.6-0.771   c-1.08-0.514-2.185-1.04-3.306-1.575c-4.32-2.476-8.639-5.615-12.467-9.317c-3.708-3.828-6.845-8.147-9.32-12.47   c-0.534-1.119-1.061-2.227-1.576-3.306c-0.252-0.543-0.546-1.059-0.767-1.602c-0.196-0.548-0.389-1.091-0.581-1.628   c-0.396-1.067-0.781-2.105-1.154-3.111c-0.265-1.038-0.517-2.04-0.761-3.001c-0.218-0.97-0.565-1.869-0.667-2.774   c-0.134-0.894-0.259-1.744-0.379-2.544c-0.128-0.801-0.247-1.548-0.357-2.239c-0.03-0.701-0.06-1.345-0.084-1.927   c-0.13-2.328-0.217-3.59-0.217-3.59c0-2.71-2.221-4.906-4.962-4.906c-2.739,0-4.964,2.196-4.964,4.906   C110.389,286.928,110.426,287.201,110.475,287.475z"/>
	<path fill="#F04A23" d="M134.588,110.216c1.285,0,2.445-0.495,3.326-1.286l0.008,0.008c0.18-0.16,0.356-0.325,0.543-0.479   c1.607-1.637,3.516-2.81,5.194-4.147c0.837-0.682,1.808-1.124,2.673-1.691c0.893-0.521,1.731-1.105,2.612-1.564   c0.897-0.429,1.776-0.848,2.636-1.257c0.867-0.391,1.664-0.893,2.538-1.147c1.72-0.57,3.293-1.281,4.851-1.707   c1.567-0.385,3.029-0.766,4.378-1.133c1.383-0.212,2.653-0.407,3.8-0.582c0.574-0.093,1.116-0.182,1.626-0.264   c0.518-0.049,1.004-0.048,1.456-0.074c0.904-0.044,1.673-0.082,2.297-0.113c0.525-0.03,0.921-0.054,1.234-0.073   c0.617,0.034,1.604,0.089,2.93,0.162c0.579,0.023,1.228,0.053,1.93,0.083c0.688,0.111,1.438,0.232,2.238,0.359   c0.796,0.118,1.649,0.244,2.544,0.378c0.906,0.104,1.808,0.449,2.773,0.667c0.965,0.244,1.968,0.498,3.006,0.76   c1.005,0.374,2.043,0.759,3.109,1.154c0.537,0.192,1.082,0.386,1.63,0.583c0.543,0.219,1.059,0.511,1.602,0.765   c1.079,0.516,2.182,1.042,3.307,1.577c4.32,2.475,8.636,5.614,12.467,9.319c3.706,3.831,6.845,8.146,9.319,12.469   c0.535,1.123,1.063,2.224,1.575,3.304c0.253,0.542,0.545,1.061,0.767,1.6c0.196,0.55,0.39,1.096,0.582,1.63   c0.348,0.944,0.7,2.066,1.031,2.969c0.573,2.087,2.481,3.634,4.774,3.634c2.742,0,4.965-2.197,4.965-4.905   c0-0.494-0.095-0.962-0.229-1.41l0.005-0.001c-0.018-0.038-0.03-0.079-0.044-0.116c-0.053-0.157-0.1-0.316-0.164-0.466   c-0.372-1.038-0.756-2.142-1.146-3.21c-0.231-0.633-0.464-1.275-0.7-1.926c-0.264-0.639-0.595-1.256-0.896-1.898   c-0.612-1.274-1.24-2.578-1.874-3.904c-2.907-5.12-6.623-10.218-11.009-14.724c-4.508-4.386-9.604-8.1-14.728-11.006   c-1.324-0.639-2.629-1.266-3.902-1.879c-0.641-0.298-1.26-0.633-1.896-0.895c-0.654-0.235-1.291-0.469-1.929-0.7   c-1.265-0.463-2.493-0.917-3.683-1.354c-1.229-0.315-2.414-0.622-3.555-0.912c-1.144-0.265-2.216-0.646-3.282-0.782   c-1.058-0.159-2.063-0.312-3.01-0.455c-0.945-0.147-1.831-0.282-2.646-0.41c-0.827-0.041-1.588-0.079-2.276-0.114   c-1.217-0.063-2.186-0.114-2.906-0.151l-0.176-0.007c0,0-0.126-0.046-0.572-0.021c-0.461-0.025-0.505,0.043-0.505,0.043   l-0.153-0.013c-0.254,0.013-0.527,0.027-0.848,0.045c-0.737,0.037-1.643,0.083-2.708,0.135c-0.532,0.033-1.107,0.04-1.717,0.096   c-0.604,0.095-1.246,0.194-1.924,0.3c-1.354,0.218-2.864,0.415-4.492,0.7c-1.601,0.413-3.333,0.858-5.184,1.336   c-1.84,0.51-3.714,1.324-5.74,2.02c-1.03,0.316-1.981,0.886-3.004,1.35c-1.017,0.487-2.054,0.986-3.115,1.496   c-1.04,0.547-2.039,1.222-3.095,1.841c-1.024,0.668-2.158,1.213-3.153,2.004c-2,1.561-4.224,2.981-6.141,4.894   c-0.443,0.375-0.39,0.309-0.821,0.705l0.006,0.004c-0.907,0.888-1.468,2.119-1.468,3.48   C129.626,108.021,131.849,110.216,134.588,110.216z"/>
	<path fill="#F04A23" d="M130.218,148.116c0.111,2.612,2.272,4.702,4.942,4.702c2.741,0,4.966-2.197,4.966-4.904   c0-0.126-0.029-0.245-0.038-0.365c0.192-3.003,0.57-5.937,1.396-8.726c0.217-0.798,0.6-1.536,0.842-2.315l0.393-1.162l0.562-1.085   c0.388-0.711,0.632-1.492,1.063-2.173c0.443-0.671,0.858-1.351,1.248-2.042c1.826-2.575,3.695-5.07,5.979-6.911   c0.996-1.087,2.266-1.762,3.306-2.657c0.518-0.461,1.167-0.691,1.709-1.062c0.572-0.325,1.091-0.728,1.65-1.015   c0.581-0.249,1.142-0.509,1.682-0.778c0.548-0.241,1.036-0.611,1.603-0.739c1.102-0.32,2.076-0.824,3.068-1.083   c1-0.216,1.919-0.463,2.768-0.724c0.879-0.132,1.694-0.212,2.418-0.346c0.364-0.068,0.708-0.132,1.03-0.194   c0.331-0.028,0.646-0.011,0.937-0.024c0.581-0.015,1.073-0.041,1.474-0.067c0.181-0.014,0.337-0.027,0.48-0.041   c0.4,0.033,0.965,0.07,1.687,0.098c0.374,0.006,0.788,0.015,1.237,0.025c0.438,0.091,0.912,0.177,1.42,0.259   c0.505,0.082,1.047,0.156,1.622,0.221c0.582,0.04,1.139,0.31,1.752,0.44c0.604,0.164,1.244,0.304,1.908,0.453   c0.627,0.265,1.28,0.52,1.959,0.756c0.344,0.115,0.69,0.228,1.04,0.345c0.124,0.051,0.245,0.113,0.366,0.178   c0.669,0.33,1.41,0.532,2.207,0.532c2.738,0,4.962-2.196,4.962-4.905c0-1.911-1.116-3.55-2.732-4.358l0.011-0.017   c-0.307-0.156-0.7-0.378-1.012-0.502c-0.451-0.156-0.896-0.311-1.332-0.463c-0.875-0.312-1.725-0.632-2.537-0.956   c-0.851-0.211-1.669-0.411-2.457-0.605c-0.789-0.177-1.518-0.484-2.259-0.556c-0.735-0.105-1.435-0.205-2.088-0.298   c-0.652-0.111-1.266-0.214-1.828-0.31c-0.574-0.02-1.106-0.039-1.585-0.054c-0.629-0.027-1.154-0.057-1.595-0.082l-0.396,0.012   c0,0,0.121-0.033-0.352,0c-0.428-0.032-0.438-0.022-0.438-0.022l-0.219,0.009c-0.061,0.002-0.103,0.006-0.164,0.01   c-0.513,0.023-1.143,0.054-1.885,0.09c-0.371,0.018-0.773,0.01-1.194,0.05c-0.418,0.07-0.861,0.146-1.329,0.226   c-0.938,0.142-1.979,0.296-3.111,0.465c-1.098,0.315-2.288,0.628-3.573,0.928c-1.274,0.343-2.549,0.951-3.958,1.397   c-0.721,0.188-1.361,0.625-2.068,0.942c-0.706,0.331-1.425,0.669-2.16,1.015c-0.721,0.376-1.398,0.869-2.131,1.292   c-0.704,0.47-1.515,0.804-2.189,1.376c-1.361,1.116-2.95,2.04-4.252,3.402c-2.898,2.389-5.349,5.544-7.667,8.875   c-0.514,0.882-1.047,1.756-1.604,2.629c-0.541,0.882-0.891,1.868-1.375,2.793l-0.708,1.406l-0.524,1.491   c-0.331,1-0.789,1.966-1.072,2.992c-1.082,3.63-1.577,7.333-1.793,11.194c-0.039,0.243-0.076,0.482-0.076,0.735   c0,0.055,0.014,0.107,0.018,0.161c-0.001,0.016-0.003,0.032-0.003,0.042H130.218z"/>
	<path fill="#F04A23" d="M180.258,193.387c0.78,0.053,1.613,0.082,2.497,0.169c0.888,0.126,1.827,0.263,2.817,0.405   c1.985,0.304,4.191,0.614,6.567,1.057c2.107,0.513,4.473,1.045,6.869,1.678c0.595,0.253,1.254,0.389,1.943,0.389   c2.743,0,4.965-2.193,4.965-4.9c0-2.1-1.341-3.874-3.212-4.575l0.006-0.023c-0.054-0.016-0.111-0.035-0.162-0.053   c-0.207-0.055-0.392-0.103-0.594-0.155h-0.003c-2.764-0.742-5.383-1.406-7.813-1.991c-2.625-0.496-5.062-0.843-7.253-1.175   c-1.098-0.158-2.138-0.305-3.116-0.442c-0.98-0.095-1.899-0.132-2.756-0.19c-1.718-0.089-3.179-0.164-4.357-0.226   c-0.906-0.037-1.563-0.08-2.134-0.1l-0.196-0.021c0,0-0.356-0.031-1.077-0.065c-0.4-0.021-0.932-0.113-1.513-0.126   c-0.29-0.014-0.604,0.002-0.937-0.025c-0.322-0.063-0.666-0.125-1.03-0.194c-0.724-0.132-1.539-0.213-2.418-0.345   c-0.849-0.261-1.769-0.509-2.768-0.725c-0.992-0.258-1.967-0.764-3.068-1.085c-0.565-0.126-1.054-0.496-1.603-0.737   c-0.54-0.269-1.101-0.526-1.682-0.777c-0.561-0.287-1.078-0.69-1.65-1.013c-0.543-0.374-1.192-0.603-1.709-1.064   c-1.04-0.896-2.31-1.569-3.306-2.654c-2.284-1.843-4.153-4.34-5.979-6.911c-0.361-0.637-0.747-1.264-1.152-1.885l-0.019,0.01   c-0.896-1.28-2.384-2.117-4.077-2.117c-2.741,0-4.963,2.196-4.963,4.903c0,0.917,0.27,1.76,0.711,2.494   c0.367,0.746,0.729,1.317,1.258,1.965c2.319,3.331,4.768,6.486,7.667,8.878c1.302,1.358,2.891,2.286,4.252,3.402   c0.675,0.568,1.486,0.903,2.189,1.375c0.732,0.422,1.41,0.917,2.131,1.291c0.734,0.348,1.454,0.685,2.16,1.016   c0.708,0.316,1.349,0.754,2.068,0.943c1.409,0.446,2.684,1.054,3.958,1.394c1.285,0.302,2.477,0.616,3.573,0.929   c1.133,0.168,2.173,0.324,3.111,0.463c0.467,0.085,0.911,0.158,1.329,0.229c0.421,0.04,0.823,0.029,1.194,0.049   c0.743,0.035,0.854,0.042,1.366,0.066c0.063,0.003,0.405,0.04,0.462,0.042l0.307,0.044c0,0,1.054,0.093,3.198,0.182   C177.386,193.24,178.707,193.308,180.258,193.387z"/>
	<path fill="#F04A23" d="M241.773,209.502c-3.146-3.01-6.643-5.428-9.923-7.877c-1.63-1.232-3.414-2.199-5.081-3.258   c-0.658-0.392-1.304-0.787-1.948-1.177c-0.818-0.592-1.824-0.954-2.921-0.954c-2.738,0-4.963,2.197-4.963,4.903   c0,1.891,1.098,3.514,2.683,4.335c0.664,0.416,1.363,0.896,2.022,1.29c1.511,0.958,3.129,1.82,4.604,2.945   c2.96,2.228,6.136,4.393,8.975,7.126c5.976,5.135,11.322,11.585,16.11,18.709c1.113,1.838,2.24,3.689,3.37,5.557   c1.099,1.885,1.982,3.914,2.964,5.894c0.473,1.004,0.946,2.012,1.425,3.016c0.413,1.035,0.792,2.088,1.188,3.134   c0.753,2.112,1.597,4.206,2.229,6.378c2.604,8.684,3.829,17.848,3.986,26.983c-0.157,9.131-1.383,18.293-3.986,26.979   c-0.258,0.883-0.556,1.756-0.864,2.617l0.018,0.006c-0.228,0.563-0.361,1.172-0.361,1.807c0,2.712,2.224,4.909,4.965,4.909   c2.103,0,3.89-1.296,4.614-3.121l0.011,0.004c0.462-1.271,0.657-2.082,1.037-3.382c2.881-9.607,4.251-19.734,4.408-29.817   c-0.157-10.083-1.527-20.218-4.408-29.822c-0.696-2.399-1.62-4.722-2.459-7.05c-0.434-1.164-0.859-2.323-1.317-3.466   c-0.527-1.117-1.048-2.228-1.569-3.334c-1.079-2.199-2.067-4.435-3.279-6.521c-1.227-2.075-2.47-4.124-3.728-6.144   C254.293,222.293,248.365,215.186,241.773,209.502z"/>
	<path fill="#F04A23" d="M71.174,287.505c0.041,1.123,0.125,3.15,0.277,5.937c0.07,1.101,0.146,2.322,0.229,3.648   c0.19,1.328,0.394,2.757,0.612,4.286c0.241,1.524,0.499,3.149,0.77,4.861c0.256,1.717,0.792,3.471,1.231,5.325   c0.472,1.845,0.971,3.769,1.528,5.742c0.676,1.941,1.394,3.939,2.151,5.986c0.387,1.021,0.777,2.061,1.172,3.104   c0.427,1.035,0.937,2.049,1.417,3.09c0.984,2.07,2.007,4.172,3.076,6.3c4.635,8.312,10.649,16.534,17.756,23.755   c1.788,1.766,3.648,3.451,5.548,5.068c0.134,0.136,0.282,0.252,0.432,0.377c0.001,0,0.002,0,0.004,0   c0.856,0.701,1.941,1.145,3.143,1.145c2.74,0,4.963-2.195,4.963-4.908c0-1.47-0.667-2.771-1.703-3.67l0.015-0.018   c-1.867-1.576-3.691-3.225-5.446-4.946c-6.427-6.542-11.866-13.989-16.068-21.5c-0.961-1.926-1.885-3.833-2.774-5.7   c-0.434-0.941-0.901-1.853-1.287-2.789c-0.355-0.949-0.708-1.888-1.054-2.81c-0.668-1.862-1.322-3.666-1.953-5.415   c-0.499-1.787-0.946-3.527-1.374-5.196c-0.396-1.678-0.893-3.262-1.12-4.811c-0.244-1.554-0.474-3.019-0.691-4.402   c-0.199-1.384-0.388-2.674-0.562-3.875c-0.072-1.201-0.14-2.307-0.201-3.304c-0.117-2.546-0.203-4.391-0.249-5.396   c0.009-0.115,0.034-0.227,0.034-0.342c0-2.712-2.221-4.909-4.962-4.909c-2.553,0-4.633,1.917-4.91,4.368h-0.04   c0,0,0.002,0.122,0.009,0.309c-0.003,0.079-0.022,0.153-0.022,0.232C71.126,287.207,71.159,287.354,71.174,287.505z"/>
	<path fill="#F04A23" d="M251.089,256.662c-0.354-0.938-0.706-1.875-1.058-2.805c-0.426-0.898-0.854-1.799-1.278-2.694   c-0.883-1.77-1.656-3.59-2.646-5.278c-1.018-1.667-2.021-3.323-3.018-4.972c-4.293-6.363-9.062-12.151-14.425-16.733   c-2.531-2.465-5.392-4.382-8.029-6.389c-1.315-1.009-2.771-1.765-4.119-2.628c-1.375-0.817-2.696-1.678-4.056-2.392   c-1.387-0.674-2.744-1.333-4.069-1.975c-1.34-0.613-2.602-1.319-3.942-1.759c-2.639-0.947-5.11-1.967-7.521-2.644   c-2.423-0.625-4.693-1.206-6.792-1.743c-2.128-0.39-4.101-0.664-5.876-0.938c-0.888-0.132-1.729-0.253-2.517-0.369   c-0.797-0.079-1.546-0.1-2.239-0.146c-0.139-0.006-0.266-0.011-0.396-0.02l-0.128-0.004c-0.134-0.014-0.142,0.002-0.283,0.002   c-2.74,0-4.962,2.196-4.962,4.909c0,2.581,1.979,4.691,4.546,4.883l0.219,0.042c0.146,0.01,0.095-0.005,0.25,0   c0.611,0.037,1.275,0.05,1.977,0.121c0.698,0.103,1.438,0.213,2.223,0.333c1.564,0.244,3.307,0.481,5.184,0.821   c1.85,0.475,3.851,0.986,5.989,1.539c2.122,0.593,4.298,1.511,6.632,2.333c1.182,0.379,2.292,1.011,3.472,1.551   c1.172,0.566,2.368,1.145,3.592,1.735c1.2,0.632,2.359,1.401,3.576,2.118c1.188,0.767,2.48,1.417,3.637,2.318   c2.321,1.785,4.859,3.452,7.084,5.641c4.748,4.035,8.937,9.165,12.734,14.769c0.882,1.454,1.771,2.916,2.665,4.388   c0.874,1.486,1.542,3.097,2.327,4.656l1.139,2.371l0.921,2.476c0.583,1.67,1.275,3.313,1.769,5.024   c2.046,6.848,2.994,14.074,3.151,21.309c-0.157,7.234-1.105,14.454-3.151,21.303c-0.492,1.711-1.186,3.354-1.769,5.022   l-0.921,2.474l-1.139,2.373c-0.785,1.562-1.453,3.17-2.327,4.654c-0.896,1.475-1.783,2.936-2.665,4.389   c-0.536,0.795-1.083,1.572-1.636,2.344l0.011,0.008c-0.672,0.835-1.088,1.884-1.088,3.027c0,2.711,2.223,4.908,4.964,4.908   c1.813,0,3.385-0.976,4.251-2.41c0.698-0.955,0.948-1.33,1.741-2.504c0.997-1.646,2-3.304,3.018-4.974   c0.988-1.685,1.763-3.507,2.646-5.276c0.426-0.896,0.854-1.791,1.279-2.692c0.351-0.933,0.702-1.869,1.057-2.808   c0.666-1.885,1.436-3.755,1.996-5.699c2.325-7.763,3.41-15.956,3.571-24.139c-0.161-8.182-1.246-16.378-3.571-24.146   C252.524,260.42,251.755,258.553,251.089,256.662z"/>
	<path fill="#F04A23" d="M123.95,129.477l0.655-1.818l0.849-1.728c0.054-0.104,0.1-0.21,0.151-0.316   c0.481-0.756,0.771-1.644,0.771-2.604c0-2.709-2.222-4.905-4.964-4.905c-2.142,0-3.946,1.347-4.646,3.224l-0.014-0.005   c-0.072,0.146-0.137,0.295-0.212,0.442l-0.993,2.049l-0.788,2.148c-0.5,1.445-1.115,2.862-1.536,4.345   c-1.771,5.928-2.575,12.188-2.734,18.47c0.159,6.281,0.962,12.541,2.734,18.469c0.421,1.48,1.036,2.9,1.536,4.345l0.788,2.149   l0.993,2.049c0.685,1.346,1.247,2.75,2.012,4.032c0.776,1.278,1.547,2.547,2.313,3.804c3.306,4.848,6.912,9.319,11.044,12.807   c1.917,1.912,4.141,3.331,6.141,4.893c0.995,0.79,2.129,1.338,3.153,2.001c1.056,0.622,2.055,1.296,3.095,1.844   c1.062,0.509,2.099,1.006,3.115,1.496c1.022,0.464,1.974,1.033,3.004,1.349c1.903,0.652,3.672,1.406,5.407,1.917l0.008-0.021   c0.515,0.18,1.059,0.295,1.635,0.295c2.744,0,4.966-2.196,4.966-4.903c0-2.22-1.5-4.072-3.546-4.68   c-0.082-0.04-0.167-0.077-0.176-0.079c-1.558-0.427-2.877-1.072-4.598-1.644c-0.873-0.255-1.669-0.756-2.537-1.146   c-0.859-0.411-1.737-0.827-2.636-1.259c-0.881-0.458-1.72-1.043-2.612-1.564c-0.865-0.569-1.835-1.012-2.674-1.69   c-1.679-1.338-3.586-2.51-5.193-4.148c-3.518-2.937-6.545-6.752-9.359-10.84c-0.645-1.063-1.298-2.136-1.957-3.216   c-0.652-1.082-1.106-2.278-1.694-3.413l-0.849-1.728l-0.656-1.82c-0.412-1.225-0.95-2.415-1.304-3.668   c-1.495-5.01-2.156-10.297-2.318-15.63c0.162-5.333,0.823-10.624,2.318-15.631C122.999,131.892,123.538,130.702,123.95,129.477z"/>
	<path fill="#F04A23" d="M182.55,323.057c0,2.709,2.222,4.908,4.964,4.908c0.598,0,1.161-0.123,1.69-0.316l0.003,0.017   c0.146-0.052,0.295-0.11,0.444-0.153c0.725-0.191,1.361-0.625,2.072-0.941c0.703-0.331,1.422-0.67,2.157-1.016   c0.721-0.381,1.397-0.869,2.13-1.291c0.707-0.472,1.517-0.806,2.192-1.375c1.357-1.119,2.947-2.043,4.25-3.408   c2.897-2.387,5.351-5.541,7.668-8.871c0.514-0.883,1.049-1.758,1.604-2.631c0.541-0.881,0.888-1.871,1.378-2.793l0.705-1.405   l0.522-1.491c0.332-0.999,0.789-1.963,1.073-2.99c1.217-4.084,1.735-8.409,1.898-12.789c-0.163-4.381-0.683-8.703-1.898-12.793   c-0.284-1.03-0.741-1.992-1.073-2.992l-0.522-1.491l-0.705-1.404c-0.49-0.927-0.837-1.915-1.378-2.796   c-0.556-0.875-1.091-1.749-1.604-2.628c-2.317-3.332-4.771-6.487-7.668-8.875c-1.303-1.365-2.893-2.286-4.25-3.404   c-0.677-0.571-1.485-0.905-2.192-1.374c-0.731-0.424-1.409-0.917-2.13-1.293c-0.735-0.345-1.454-0.685-2.157-1.017   c-0.711-0.316-1.349-0.75-2.072-0.94c-1.408-0.448-2.684-1.053-3.959-1.396c-0.643-0.152-1.259-0.305-1.852-0.458l-0.002,0.016   c-0.366-0.084-0.738-0.142-1.13-0.142c-2.743,0-4.964,2.199-4.964,4.909c0,2.165,1.431,3.982,3.401,4.629l-0.003,0.012   c0.843,0.26,0.748,0.247,1.741,0.463c0.99,0.258,1.964,0.76,3.068,1.082c0.564,0.124,1.051,0.493,1.602,0.74   c0.539,0.266,1.098,0.527,1.682,0.774c0.563,0.29,1.077,0.69,1.649,1.017c0.542,0.371,1.192,0.6,1.712,1.062   c1.037,0.895,2.311,1.569,3.302,2.657c2.286,1.838,4.156,4.334,5.981,6.913c0.391,0.688,0.803,1.367,1.25,2.038   c0.427,0.682,0.67,1.461,1.057,2.172l0.563,1.085l0.392,1.165c0.243,0.779,0.628,1.517,0.841,2.312   c0.94,3.171,1.317,6.525,1.48,9.957c-0.163,3.426-0.54,6.782-1.48,9.955c-0.213,0.792-0.598,1.535-0.841,2.313l-0.392,1.159   l-0.563,1.084c-0.387,0.711-0.63,1.492-1.057,2.176c-0.447,0.672-0.859,1.348-1.25,2.04c-1.825,2.573-3.695,5.069-5.981,6.913   c-0.991,1.084-2.265,1.76-3.302,2.654c-0.52,0.457-1.17,0.689-1.712,1.062c-0.572,0.327-1.088,0.726-1.649,1.017   c-0.584,0.25-1.143,0.51-1.682,0.777c-0.551,0.24-1.036,0.611-1.602,0.736l0.009,0.025   C183.987,319.063,182.55,320.886,182.55,323.057z"/>
	<path fill="#F04A23" d="M165.85,369.686c1.078,0.063,2.067,0.123,2.962,0.17c1.835,0.09,3.259,0.158,4.221,0.201l0.35,0.025   c0,0,0.111,0.021,0.375,0.01c0.283-0.031,0.283-0.031,0.283-0.031h0.396c0.424-0.021,0.93-0.035,1.536-0.067   c0.958-0.054,2.14-0.111,3.531-0.179c0.694-0.049,1.442-0.069,2.239-0.145c0.789-0.121,1.629-0.24,2.517-0.373   c1.775-0.275,3.748-0.549,5.876-0.938c2.099-0.538,4.369-1.117,6.792-1.737c2.41-0.687,4.883-1.703,7.521-2.649   c1.341-0.438,2.603-1.145,3.941-1.756c1.325-0.646,2.685-1.307,4.069-1.98c1.358-0.711,2.681-1.567,4.056-2.391   c1.349-0.857,2.804-1.617,4.119-2.627c1.374-1.045,2.807-2.07,4.227-3.156l-0.008-0.01c1.237-0.896,2.056-2.33,2.056-3.963   c0-2.706-2.225-4.902-4.963-4.902c-1.176,0-2.238,0.416-3.093,1.09l-0.004-0.006c-1.28,0.985-2.585,1.908-3.822,2.86   c-1.155,0.901-2.449,1.554-3.637,2.318c-1.217,0.716-2.376,1.483-3.576,2.116c-1.224,0.591-2.42,1.17-3.592,1.732   c-1.18,0.537-2.29,1.18-3.472,1.555c-2.334,0.826-4.51,1.742-6.632,2.334c-2.14,0.554-4.141,1.063-5.989,1.543   c-1.877,0.336-3.618,0.566-5.184,0.815c-0.783,0.115-1.523,0.231-2.223,0.338c-0.7,0.063-1.364,0.078-1.977,0.114   c-1.228,0.063-2.276,0.116-3.119,0.163c-0.822,0.038-1.454,0.069-1.891,0.091c-0.795-0.043-2.255-0.111-4.272-0.211   c-0.79-0.043-1.666-0.096-2.618-0.146c-0.944-0.143-1.964-0.291-3.058-0.459c-1.088-0.168-2.249-0.343-3.473-0.531   c-1.228-0.164-2.471-0.584-3.792-0.896c-1.314-0.337-2.684-0.695-4.1-1.064c-1.377-0.506-2.8-1.021-4.263-1.553   c-0.729-0.273-1.472-0.543-2.221-0.822c-0.737-0.299-1.454-0.68-2.193-1.026c-1.472-0.706-2.976-1.433-4.502-2.175   c-5.918-3.334-11.8-7.628-16.985-12.695c-3.536-3.617-6.824-7.89-9.55-11.97c-0.007-0.013-0.016-0.025-0.022-0.032   c-0.043-0.07-0.093-0.136-0.137-0.201l-0.017,0.014c-0.907-1.186-2.33-1.961-3.949-1.961c-2.74,0-4.962,2.193-4.962,4.902   c0,1.006,0.306,1.936,0.828,2.713l-0.006,0.006c3.123,4.719,6.762,9.313,10.857,13.488c5.864,5.746,12.527,10.607,19.242,14.381   c1.732,0.842,3.435,1.668,5.103,2.479c0.842,0.391,1.654,0.813,2.493,1.154c0.85,0.315,1.687,0.631,2.514,0.938   c1.661,0.602,3.275,1.186,4.838,1.749c1.605,0.426,3.159,0.832,4.648,1.222c1.5,0.354,2.912,0.813,4.302,1.012   c1.388,0.211,2.701,0.416,3.938,0.611C163.622,369.354,164.779,369.527,165.85,369.686z"/>
	<path fill="#F04A23" d="M227.156,363.739c-1.011,0-1.949,0.301-2.737,0.815l-0.006-0.01c-0.928,0.578-1.863,1.12-2.771,1.7   c-1.539,0.911-3.018,1.864-4.535,2.665c-1.549,0.754-3.065,1.496-4.546,2.214c-1.501,0.688-2.918,1.463-4.408,1.963   c-2.949,1.071-5.72,2.197-8.413,2.955c-2.705,0.728-5.246,1.375-7.6,1.95c-2.376,0.441-4.582,0.753-6.567,1.058   c-0.99,0.142-1.931,0.273-2.817,0.4c-0.884,0.09-1.717,0.116-2.497,0.169c-1.551,0.079-2.872,0.146-3.941,0.205   c-1.148,0.048-1.997,0.083-2.547,0.105c-0.94-0.043-2.856-0.133-5.611-0.26c-0.432-0.025-0.962-0.041-1.514-0.052   c-0.141-0.013-0.274-0.042-0.419-0.042c-2.74,0-4.963,2.195-4.963,4.904c0,2.675,2.167,4.84,4.857,4.896v0.021   c0.476,0.031,0.942,0.059,1.38,0.086c2.496,0.143,4.052,0.205,5.225,0.246l0.395,0.027c0,0,0.286,0.041,0.552,0.016   c0.484,0.017,0.57-0.016,0.57-0.016h0.395c0.573-0.027,1.116-0.068,2.023-0.101c1.179-0.069,2.64-0.142,4.356-0.232   c0.855-0.052,1.774-0.094,2.756-0.188c0.979-0.137,2.02-0.284,3.116-0.442c2.191-0.332,4.628-0.68,7.253-1.174   c2.606-0.622,5.421-1.338,8.408-2.149c2.972-0.843,6.043-2.068,9.301-3.265c1.646-0.569,3.218-1.407,4.878-2.171   c1.639-0.801,3.313-1.616,5.022-2.449c1.683-0.891,3.319-1.934,5.019-2.945c0.962-0.609,1.96-1.195,2.948-1.811   c1.435-0.864,2.404-2.407,2.404-4.188C232.122,365.936,229.902,363.739,227.156,363.739z"/>
	<path fill="#F04A23" d="M0.221,0.553v599.887h350.086V0.553H0.221z M343.416,593.549H7.112V519h336.305V593.549z M34.843,479.672   c-0.716-0.223-2.507-0.626-5.416-1.208c-6.851-1.434-9.582-3.671-9.582-8.551c0-2.776,1.03-4.97,3.135-6.627   c2.104-1.656,4.879-2.462,8.371-2.462c4.164,0,8.014,0.672,11.595,2.06l-1.387,4.744c-4.075-1.297-7.521-1.925-10.387-1.925   c-3.537,0-5.688,1.344-5.688,3.986c0,1.209,0.583,2.104,1.702,2.687c1.164,0.536,3.18,1.074,6,1.655   c3.67,0.762,6.357,1.747,8.059,2.999c1.746,1.254,2.597,3.224,2.597,5.865c0,6.223-4.79,9.49-12.132,9.49   c-4.389,0-8.642-0.852-12.759-2.551l1.253-5.016c4.164,1.656,8.059,2.508,11.729,2.508c4.343,0,6.492-1.299,6.492-3.896   C38.425,481.688,37.217,480.433,34.843,479.672z M59.184,461.272h6.088l9.225,14.549l9.311-14.549h6.044l-12.581,20.19v10.252   h-5.417v-10.252L59.184,461.272z M104.545,491.716v-30.442h4.97l16.967,21.533v-21.533h5.328v30.442h-5.104l-16.789-21.311v21.311   H104.545z M171.921,474.031v4.926h-14.82v7.788H173.8v4.971h-22.071v-30.442H173.8v4.969h-16.699v7.79L171.921,474.031   L171.921,474.031z M217.718,491.716h-6.536l-6.896-9.895c-0.491,0.044-1.207,0.044-2.191,0.044h-4.298v9.851h-5.372v-30.442   c4.743-0.181,8.461-0.27,11.146-0.27c7.479,0,12.225,3.716,12.225,10.298c0,4.161-2.282,7.476-6.179,9.223L217.718,491.716z    M241.398,484.195c1.929,1.968,4.521,2.954,7.7,2.954c2.821,0,5.82-0.447,8.953-1.345v-6.626h-10.968v-4.969h16.072v14.862   c-5.148,2.193-9.805,3.313-14.059,3.313c-4.879,0-8.818-1.477-11.817-4.388c-2.955-2.953-4.434-6.85-4.434-11.639   c0-4.703,1.568-8.509,4.658-11.417c3.133-2.911,7.252-4.345,12.355-4.345c3.446,0,6.938,0.449,10.475,1.345l-1.075,5.015   c-4.251-0.762-7.25-1.164-8.996-1.164c-3.537,0-6.358,0.984-8.553,2.91c-2.148,1.925-3.223,4.477-3.223,7.656   C238.49,479.628,239.473,482.225,241.398,484.195z M282.048,491.716v-30.442h5.37v30.442H282.048z M327.529,474.031v4.926h-14.815   v7.788h16.699v4.971h-22.071v-30.442h22.071v4.969h-16.699v7.79L327.529,474.031L327.529,474.031z M343.416,435H7.112V7.444   h336.305V435z"/>
	<polygon fill="#F04A23" points="52.967,551.393 60.48,567.337 63.37,567.337 70.917,551.393 71.903,567.337 75.064,567.337    73.739,544.22 70.645,544.22 61.942,563.428 53.239,544.22 50.145,544.22 48.819,567.337 51.981,567.337  "/>
	<polygon fill="#F04A23" points="131.163,564.345 118.006,564.345 118.006,557.274 129.735,557.274 129.735,554.282    118.006,554.282 118.006,547.211 131.163,547.211 131.163,544.22 114.777,544.22 114.777,567.337 131.163,567.337  "/>
	<path fill="#F04A23" d="M186.988,564.313c2.21-2.211,3.299-5.101,3.299-8.671c0-3.534-1.122-6.355-3.365-8.499   c-2.244-2.142-5.168-3.194-8.807-3.194c-2.039,0-4.69,0.102-7.954,0.271v23.117c3.264,0.17,6.051,0.271,8.396,0.271   C181.991,567.608,184.778,566.521,186.988,564.313z M173.39,547.075c2.04-0.104,3.604-0.138,4.725-0.138   c2.618,0,4.761,0.782,6.357,2.381c1.598,1.563,2.414,3.672,2.414,6.322c0,2.688-0.782,4.862-2.346,6.494   c-1.564,1.632-3.57,2.447-5.983,2.447c-1.768,0-3.501-0.034-5.167-0.102V547.075z"/>
	<rect x="229.25" y="544.22" fill="#F04A23" width="3.229" height="23.117"/>
	<path fill="#F04A23" d="M276.304,562.136h12.238l2.276,5.201h3.639l-10.505-23.254h-3.061l-10.505,23.254h3.638L276.304,562.136z    M282.423,548.265l4.827,10.981h-9.655L282.423,548.265z"/>
</g>
</svg>